<?xml version="1.0" standalone="no"?>
<!DOCTYPE svg PUBLIC "-//W3C//DTD SVG 20010904//EN"
 "http://www.w3.org/TR/2001/REC-SVG-20010904/DTD/svg10.dtd">
<svg version="1.0" xmlns="http://www.w3.org/2000/svg"
 width="500.000000pt" height="500.000000pt" viewBox="0 0 500.000000 500.000000"
 preserveAspectRatio="xMidYMid meet">
<metadata>
Created by potrace 1.16, written by Peter Selinger 2001-2019
</metadata>
<g transform="translate(0.000000,500.000000) scale(0.100000,-0.100000)"
fill="#000000" stroke="none">
<path d="M845 4993 c-176 -25 -366 -113 -508 -236 -130 -112 -253 -307 -309
-487 l-23 -75 -3 -1645 c-2 -1215 0 -1664 8 -1719 59 -377 352 -698 730 -803
l85 -23 1675 0 1675 0 85 24 c353 97 619 367 716 726 18 67 19 132 19 1745 l0
1675 -23 85 c-48 178 -173 380 -309 497 -113 98 -251 172 -398 214 l-80 23
-1655 2 c-910 1 -1668 -1 -1685 -3z m1120 -1493 c358 -41 603 -239 729 -588
44 -122 59 -113 -180 -110 l-207 3 -17 85 c-62 298 -232 504 -457 550 -75 16
-271 10 -282 -9 -5 -8 -6 -153 -3 -322 l5 -309 -201 0 -202 0 0 140 c0 134
-14 437 -25 527 l-4 42 37 4 c65 9 713 -2 807 -13z m1903 5 c1 -1 -2 -55 -8
-121 -5 -65 -10 -210 -10 -320 0 -111 -3 -216 -6 -233 l-6 -31 -194 0 -194 0
0 206 c0 113 -5 271 -12 351 -9 115 -8 147 1 153 11 6 421 2 429 -5z m-2319
-1626 c-1 -224 2 -314 10 -322 8 -8 57 -12 144 -12 119 1 139 4 200 28 218 85
337 262 403 595 4 22 5 22 209 22 164 0 205 -3 205 -13 0 -25 -47 -152 -85
-227 -105 -212 -263 -346 -490 -415 -131 -40 -202 -46 -624 -52 l-394 -6 6 89
c4 49 10 209 13 357 l7 267 199 0 199 0 -2 -311z m2306 69 c0 -134 2 -292 5
-353 l5 -110 -209 -3 c-115 -1 -213 1 -216 5 -4 5 -3 40 1 78 4 39 11 195 15
348 l7 277 196 0 196 0 0 -242z"/>
</g>
</svg>
